<?xml version="1.0" encoding="UTF-8" standalone="no"?>
<svg width="117px" height="73px" viewBox="0 0 117 73" version="1.1" xmlns="http://www.w3.org/2000/svg" xmlns:xlink="http://www.w3.org/1999/xlink">
    <!-- Generator: Sketch 43 (38999) - http://www.bohemiancoding.com/sketch -->
    <title>monitor-thin</title>
    <desc>Created with Sketch.</desc>
    <defs></defs>
    <g id="Page-1" stroke="none" stroke-width="1" fill="none" fill-rule="evenodd">
        <g id="Artboard" transform="translate(-48.000000, -32.000000)">
            <g id="monitor-thin" transform="translate(48.000000, 32.000000)">
                <path d="M115.639535,0.5 L1.36046512,0.5 C0.952325581,0.5 0.680232558,0.7 0.680232558,1 L0.680232558,50.2 C0.680232558,50.5 0.952325581,50.7 1.36046512,50.7 L51.5616279,50.7 L51.5616279,66 L38.5011628,66 C38.2290698,66 38.0930233,66.1 37.9569767,66.2 L34.1476744,70 C34.0116279,70.1 34.0116279,70.2 34.0116279,70.3 L34.0116279,71.1 C34.0116279,71.4 34.2837209,71.6 34.6918605,71.6 L34.827907,71.6 L34.827907,71.8 C34.827907,72.1 35.1,72.3 35.5081395,72.3 L81.627907,72.3 C82.0360465,72.3 82.3081395,72.1 82.3081395,71.8 L82.3081395,71.7 L82.444186,71.7 C82.8523256,71.7 83.1244186,71.5 83.1244186,71.2 L83.1244186,70.3 C83.1244186,70.2 83.1244186,70.1 82.9883721,70 L79.8593023,66.2 C79.7232558,66.1 79.4511628,66 79.3151163,66 L65.4383721,66 L65.4383721,50.7 L115.639535,50.7 C116.047674,50.7 116.319767,50.5 116.319767,50.2 L116.319767,1 C116.319767,0.7 116.047674,0.5 115.639535,0.5 Z M78.7709302,67 L81.627907,70.4 L81.627907,70.7 L81.4918605,70.7 C81.0837209,70.7 80.8116279,70.9 80.8116279,71.2 L80.8116279,71.3 L36.1883721,71.3 L36.1883721,71.1 C36.1883721,70.8 35.9162791,70.6 35.5081395,70.6 L35.372093,70.6 L35.372093,70.4 L38.7732558,66.9 L51.5616279,66.9 L51.5616279,67.4 C51.5616279,67.5 51.6976744,67.7 51.8337209,67.8 C51.9697674,67.9 53.3302326,68.8 58.3639535,68.8 C63.3976744,68.8 65.1662791,68 65.3023256,67.9 C65.4383721,67.8 65.5744186,67.6 65.5744186,67.5 L65.5744186,67 L78.7709302,67 Z M114.959302,49.7 L2.04069767,49.7 L2.04069767,1.5 L114.959302,1.5 L114.959302,49.7 Z" id="Shape" fill="#D0D0D0" fill-rule="nonzero"></path>
                <path d="M52,51 L65,51 L65,67 C65,67 60.6718051,67.9146833 58.5,67.9146833 C56.3281949,67.9146833 52,67 52,67 L52,51 Z" id="Rectangle" fill="#FFFFFF"></path>
            </g>
        </g>
    </g>
</svg>