<?xml version="1.0" encoding="UTF-8" standalone="no"?>
<svg width="90px" height="72px" viewBox="0 0 90 72" version="1.1" xmlns="http://www.w3.org/2000/svg" xmlns:xlink="http://www.w3.org/1999/xlink">
    <!-- Generator: Sketch 43 (38999) - http://www.bohemiancoding.com/sketch -->
    <title>monitor</title>
    <desc>Created with Sketch.</desc>
    <defs></defs>
    <g id="Page-1" stroke="none" stroke-width="1" fill="none" fill-rule="evenodd">
        <g id="Artboard" transform="translate(-16.000000, -29.000000)">
            <g id="monitor" transform="translate(16.000000, 29.000000)">
                <rect id="Rectangle-path" x="6.699" y="7.187" width="75.945" height="40.621"></rect>
                <path d="M32.536,67.055 L31.689,67.872 L57.653,67.872 L56.805,67.055 C56.653,66.909 56.206,66.728 55.995,66.728 L33.345,66.728 C33.139,66.727 32.685,66.911 32.536,67.055 Z" id="Shape"></path>
                <path d="M55.861,59.29 C55.861,58.555 55.263,57.956 54.528,57.956 L34.814,57.956 C34.079,57.956 33.481,58.554 33.481,59.29 L33.481,60.276 C33.481,61.533 32.772,63.202 31.867,64.075 L25.503,70.21 C25.401,70.309 25.336,70.391 25.296,70.451 C25.366,70.467 25.47,70.481 25.612,70.481 L63.729,70.481 C63.871,70.481 63.975,70.467 64.045,70.451 C64.006,70.391 63.941,70.308 63.839,70.21 L57.475,64.075 C56.57,63.202 55.861,61.534 55.861,60.276 L55.861,59.29 L55.861,59.29 Z M55.995,65.451 C56.537,65.451 57.298,65.758 57.69,66.135 L60.817,69.148 L28.527,69.148 L31.65,66.135 C32.043,65.757 32.803,65.451 33.345,65.451 L55.995,65.451 Z" id="Shape"></path>
                <path d="M85.532,1.518 L4.468,1.518 C2.708,1.518 1.277,2.95 1.277,4.709 L1.277,53.488 C1.277,55.248 2.709,56.679 4.468,56.679 L34.814,56.679 L54.528,56.679 L85.532,56.679 C87.292,56.679 88.723,55.247 88.723,53.488 L88.723,4.71 C88.723,2.95 87.292,1.518 85.532,1.518 Z M46.855,53.499 C46.855,54.04 46.411,54.484 45.869,54.484 L43.472,54.484 C42.93,54.484 42.486,54.04 42.486,53.499 L42.486,51.774 C42.486,51.231 42.929,50.789 43.472,50.789 L45.869,50.789 C46.411,50.789 46.855,51.232 46.855,51.774 L46.855,53.499 Z M83.92,49.085 L5.422,49.085 L5.422,5.91 L83.92,5.91 L83.92,49.085 Z" id="Shape"></path>
                <path d="M85.532,0.242 L4.468,0.242 C2.004,0.242 0,2.246 0,4.71 L0,53.489 C0,55.952 2.004,57.957 4.468,57.957 L32.582,57.957 C32.347,58.349 32.203,58.802 32.203,59.291 L32.203,60.277 C32.203,61.183 31.631,62.528 30.979,63.157 L24.616,69.292 C23.836,70.043 23.923,70.658 24.044,70.957 C24.165,71.256 24.529,71.759 25.612,71.759 L63.729,71.759 C64.811,71.759 65.175,71.257 65.296,70.958 C65.417,70.659 65.504,70.044 64.725,69.293 L58.362,63.158 C57.71,62.529 57.138,61.183 57.138,60.278 L57.138,59.29 C57.138,58.801 56.994,58.348 56.759,57.956 L85.532,57.956 C87.995,57.956 90,55.951 90,53.488 L90,4.71 C90,2.246 87.995,0.242 85.532,0.242 Z M57.476,64.075 L63.84,70.21 C63.942,70.308 64.007,70.391 64.046,70.451 C63.976,70.467 63.872,70.481 63.73,70.481 L25.612,70.481 C25.47,70.481 25.366,70.467 25.296,70.451 C25.336,70.391 25.4,70.309 25.503,70.21 L31.867,64.075 C32.772,63.202 33.481,61.533 33.481,60.276 L33.481,59.29 C33.481,58.555 34.079,57.956 34.814,57.956 L54.528,57.956 C55.263,57.956 55.861,58.554 55.861,59.29 L55.861,60.276 C55.861,61.534 56.571,63.202 57.476,64.075 Z M88.723,53.489 C88.723,55.249 87.291,56.68 85.532,56.68 L54.528,56.68 L34.814,56.68 L4.468,56.68 C2.708,56.68 1.277,55.248 1.277,53.489 L1.277,4.71 C1.277,2.95 2.709,1.519 4.468,1.519 L85.532,1.519 C87.292,1.519 88.723,2.951 88.723,4.71 L88.723,53.489 Z" id="Shape" fill="#8F8B8B" fill-rule="nonzero"></path>
                <path d="M5.422,49.085 L83.92,49.085 L83.92,5.91 L5.422,5.91 L5.422,49.085 Z M6.699,7.187 L82.644,7.187 L82.644,47.808 L6.699,47.808 L6.699,7.187 Z" id="Shape" fill="#8F8B8B" fill-rule="nonzero"></path>
                <path d="M45.869,50.788 L43.472,50.788 C42.93,50.788 42.486,51.231 42.486,51.773 L42.486,53.498 C42.486,54.039 42.929,54.483 43.472,54.483 L45.869,54.483 C46.411,54.483 46.855,54.039 46.855,53.498 L46.855,51.773 C46.855,51.23 46.411,50.788 45.869,50.788 Z" id="Shape" fill="#8F8B8B" fill-rule="nonzero"></path>
                <path d="M31.65,66.135 L28.527,69.148 L60.817,69.148 L57.69,66.135 C57.298,65.757 56.537,65.451 55.995,65.451 L33.345,65.451 C32.803,65.451 32.043,65.757 31.65,66.135 Z M56.805,67.055 L57.653,67.872 L31.689,67.872 L32.536,67.055 C32.685,66.911 33.139,66.728 33.346,66.728 L55.996,66.728 C56.206,66.727 56.653,66.908 56.805,67.055 Z" id="Shape" fill="#8F8B8B" fill-rule="nonzero"></path>
            </g>
        </g>
    </g>
</svg>